<?xml version="1.0" encoding="utf-8"?>
<!-- Generator: Adobe Illustrator 16.0.0, SVG Export Plug-In . SVG Version: 6.00 Build 0)  -->
<!DOCTYPE svg PUBLIC "-//W3C//DTD SVG 1.1//EN" "http://www.w3.org/Graphics/SVG/1.1/DTD/svg11.dtd">
<svg version="1.1" id="Layer_1" xmlns="http://www.w3.org/2000/svg" xmlns:xlink="http://www.w3.org/1999/xlink" x="0px" y="0px"
	 width="841.89px" height="595.28px" viewBox="0 0 841.89 595.28" enable-background="new 0 0 841.89 595.28" xml:space="preserve">
<g>
	<g>
		
			<rect x="490.275" y="479.337" transform="matrix(0.9279 0.3729 -0.3729 0.9279 215.9146 -152.118)" fill-rule="evenodd" clip-rule="evenodd" fill="#FFFFFF" width="21.713" height="5.341"/>
		
			<rect x="500.414" y="484.06" transform="matrix(0.9988 0.0495 -0.0495 0.9988 24.8445 -26.8578)" fill-rule="evenodd" clip-rule="evenodd" fill="#FFFFFF" width="109.054" height="8.726"/>
		
			<rect x="506.617" y="486.102" transform="matrix(0.9651 0.2618 -0.2618 0.9651 146.5071 -119.3253)" fill-rule="evenodd" clip-rule="evenodd" fill="#FFFFFF" width="28.965" height="8.199"/>
		<polygon fill-rule="evenodd" clip-rule="evenodd" fill="#FFFFFF" points="611.388,505.515 529.975,501.235 530.211,486.404 
			611.624,490.684 		"/>
		
			<rect x="664.463" y="449.844" transform="matrix(0.709 -0.7052 0.7052 0.709 -123.0941 615.8035)" fill-rule="evenodd" clip-rule="evenodd" fill="#FFFFFF" width="40.267" height="14.412"/>
		<rect x="692.964" y="411.96" fill-rule="evenodd" clip-rule="evenodd" fill="#FFFFFF" width="17.821" height="48.296"/>
		<rect x="689.259" y="396.382" fill-rule="evenodd" clip-rule="evenodd" fill="#FFFFFF" width="27.237" height="18.328"/>
		<ellipse fill-rule="evenodd" clip-rule="evenodd" fill="#FFFFFF" cx="723.536" cy="431.318" rx="20.806" ry="30.938"/>
		<ellipse fill-rule="evenodd" clip-rule="evenodd" fill="#FFFFFF" cx="690.259" cy="401.333" rx="16.526" ry="15.716"/>
		
			<ellipse transform="matrix(0.9369 -0.3496 0.3496 0.9369 -104.8967 260.528)" fill-rule="evenodd" clip-rule="evenodd" fill="#FFFFFF" cx="669.208" cy="420.825" rx="25.357" ry="10.951"/>
		
			<ellipse transform="matrix(-0.9497 0.3132 -0.3132 -0.9497 1448.3109 728.5408)" fill-rule="evenodd" clip-rule="evenodd" fill="#FFFFFF" cx="665.648" cy="480.58" rx="75.53" ry="13.759"/>
		
			<ellipse transform="matrix(0.6132 -0.79 0.79 0.6132 69.6319 257.8319)" fill-rule="evenodd" clip-rule="evenodd" fill="#FFFFFF" cx="298.07" cy="57.82" rx="14.381" ry="43.489"/>
		<ellipse fill-rule="evenodd" clip-rule="evenodd" fill="#FFFFFF" cx="254.135" cy="41.994" rx="38.255" ry="31.237"/>
		<ellipse fill-rule="evenodd" clip-rule="evenodd" fill="#FFFFFF" cx="435.753" cy="205.418" rx="6.305" ry="8.419"/>
		
			<ellipse transform="matrix(0.9801 -0.1985 0.1985 0.9801 -70.7746 124.2467)" fill-rule="evenodd" clip-rule="evenodd" fill="#FFFFFF" cx="584.183" cy="415.049" rx="104.188" ry="29.792"/>
		<ellipse fill-rule="evenodd" clip-rule="evenodd" fill="#FFFFFF" cx="373.825" cy="135.168" rx="11.456" ry="18.665"/>
		<ellipse fill-rule="evenodd" clip-rule="evenodd" fill="#FFFFFF" cx="88.587" cy="222.208" rx="4.166" ry="7.047"/>
		<ellipse fill-rule="evenodd" clip-rule="evenodd" fill="#FFFFFF" cx="109.36" cy="143.338" rx="3.487" ry="6.052"/>
		
			<ellipse transform="matrix(0.8925 0.451 -0.451 0.8925 227.6199 -222.2993)" fill-rule="evenodd" clip-rule="evenodd" fill="#FFFFFF" cx="580.188" cy="366.391" rx="104.486" ry="63.24"/>
		
			<ellipse transform="matrix(0.8477 0.5305 -0.5305 0.8477 226.3885 -122.0331)" fill-rule="evenodd" clip-rule="evenodd" fill="#FFFFFF" cx="325.728" cy="333.264" rx="40.358" ry="24.682"/>
		<rect x="403.621" y="387.923" fill-rule="evenodd" clip-rule="evenodd" fill="#FFFFFF" width="20.661" height="68.901"/>
		
			<rect x="349.646" y="331.974" transform="matrix(0.9921 0.1254 -0.1254 0.9921 52.4792 -44.9509)" fill-rule="evenodd" clip-rule="evenodd" fill="#FFFFFF" width="67.088" height="124.566"/>
		
			<rect x="234.852" y="407.306" transform="matrix(0.9333 -0.3592 0.3592 0.9333 -136.8401 118.61)" fill-rule="evenodd" clip-rule="evenodd" fill="#FFFFFF" width="31.856" height="40.519"/>
		<rect x="190.044" y="357.906" fill-rule="evenodd" clip-rule="evenodd" fill="#FFFFFF" width="43.202" height="89.902"/>
		<rect x="231.905" y="303.527" fill-rule="evenodd" clip-rule="evenodd" fill="#FFFFFF" width="29.081" height="84.396"/>
		<rect x="193.335" y="287.644" fill-rule="evenodd" clip-rule="evenodd" fill="#FFFFFF" width="10.642" height="17.997"/>
		<path fill-rule="evenodd" clip-rule="evenodd" fill="#FFFFFF" d="M214.151,262.806c13.493-1.393,28.708,38.892,33.98,89.978
			c5.273,51.089-1.391,93.632-14.885,95.025c-13.493,1.391-28.708-38.895-33.98-89.979
			C193.993,306.74,200.657,264.198,214.151,262.806z"/>
		<path fill-rule="evenodd" clip-rule="evenodd" fill="#FFFFFF" d="M650.781,357.907c0,30.033-66.855,54.378-149.321,54.378
			c-82.473,0-149.327-24.345-149.327-54.378c0-30.034,66.854-54.38,149.327-54.38C583.926,303.527,650.781,327.873,650.781,357.907z
			"/>
		
			<ellipse transform="matrix(-0.4777 -0.8785 0.8785 -0.4777 237.8423 286.1423)" fill-rule="evenodd" clip-rule="evenodd" fill="#FFFFFF" cx="203.976" cy="72.373" rx="23.64" ry="91.819"/>
		
			<ellipse transform="matrix(0.9675 0.2527 -0.2527 0.9675 51.3863 -24.4858)" fill-rule="evenodd" clip-rule="evenodd" fill="#FFFFFF" cx="121.022" cy="187.816" rx="24.079" ry="66.251"/>
		<ellipse fill-rule="evenodd" clip-rule="evenodd" fill="#FFFFFF" cx="94.286" cy="232.627" rx="14.467" ry="11.406"/>
		<ellipse fill-rule="evenodd" clip-rule="evenodd" fill="#FFFFFF" cx="81.819" cy="258.449" rx="24.054" ry="29.195"/>
		<ellipse fill-rule="evenodd" clip-rule="evenodd" fill="#FFFFFF" cx="130.371" cy="271.879" rx="52.226" ry="49.993"/>
		<ellipse fill-rule="evenodd" clip-rule="evenodd" fill="#FFFFFF" cx="136.628" cy="133.581" rx="25.875" ry="40.076"/>
		<ellipse fill-rule="evenodd" clip-rule="evenodd" fill="#FFFFFF" cx="306.516" cy="113.625" rx="72.838" ry="49.065"/>
		<ellipse fill-rule="evenodd" clip-rule="evenodd" fill="#FFFFFF" cx="358.88" cy="220.937" rx="44.74" ry="55.44"/>
		<ellipse fill-rule="evenodd" clip-rule="evenodd" fill="#FFFFFF" cx="366.154" cy="269.859" rx="172.819" ry="67.45"/>
		<ellipse fill-rule="evenodd" clip-rule="evenodd" fill="#FFFFFF" cx="137.232" cy="250.264" rx="52.812" ry="26.113"/>
		<path fill-rule="evenodd" clip-rule="evenodd" fill="#FFFFFF" d="M210.984,28.724c15.874-0.499,31.703-0.998,47.546-1.517
			C317.7,82.577,381.019,137.231,432.198,193.945c9.1,10.076-22.418,33.914-51.639,42.296
			c-113.387,32.475-199.036,30.782-297.154-0.21"/>
		<path fill-rule="evenodd" clip-rule="evenodd" fill="#BE1E2D" d="M512.271,482.168c-1.514-0.387-2.912-1.033-4.27-1.9
			c34.723,5.674,68.843,0.392,102.842-3.274c24.863-2.682,46.065-12.556,64.568-24.839c9.436-6.256,14.772-15.304,17.212-25.095
			c-17.539,12.915-39.709,12.679-61.471,12.659c-27.604-0.017-52.874,7.096-78.646,13c-5.604,1.283-11.895,1.827-17.716,1.422
			c-9.901-0.682-19.681-2.361-29.494-3.686c-1.625-0.216-3.613-0.418-4.667-1.204c-7.474-5.586-14.414-3.788-22.932-0.715
			c-14.708,5.314-30.212,8.088-44.573-1.409c-5.248,10.592-21.115,17.993-35.814,17.455c-10.449-0.383-20.927-0.516-31.388-0.499
			c-17.334,0.026-34.501-16.333-30.8-29.6c1.972-7.073,3.225-14.1,10.241-20.083c2.951-2.521,2.692-7.924,2.107-11.859
			c-1.136-7.633-3.336-15.2-5.537-22.722c-0.639-2.185-2.524-4.255-4.29-6.135c-1.419-1.509-3.876-2.466-5.268-3.98
			c-10.426-11.351-26.909-17.288-40.512-25.792c-7.952-4.965-15.839-9.985-24.094-15.2c-0.353,23.314,5.469,47.909-14.063,69.15
			c-3.973-3.022-3.423-7.813-1.163-16.05c3.776-13.755,6.106-27.738,9.045-41.632c-1.24-0.278-2.479-0.559-3.716-0.837
			c-1.859,2.802-3.585,5.662-5.634,8.385c-0.998,1.329-2.602,3.352-3.931,3.348c-1.622,0-3.57-1.611-4.798-2.853
			c-2.813-2.843-5.274-5.881-8.284-9.303c-6.202,4.769-7.18,1.117-9.396-2.748c-8.648-15.091-10.755-30.9-11.454-47.098
			c-0.308-7.122-2.729-14.49-14.891-19.559c-0.986,11.875-2.683,22.581-2.461,33.263c0.138,6.745,2.566,13.572,4.994,20.146
			c4.981,13.477,0.981,26.262-5.384,38.571c-6.366,12.314-8.973,24.241-3.604,37.211c2.036,4.921,1.008,10.688,0.541,16.025
			c-0.527,6.021-2.11,11.981-2.972,17.991c-0.233,1.606,0.036,3.438,0.864,4.91c2.289,4.063,27.801,12.056,32.804,9.948
			c1.994-0.843,3.389-3.731,3.428-5.708c0.126-5.826-0.561-11.662-1.025-18.97c11.399,7.059,10.799,15.921,10.688,24.479
			c18.293,0.538,18.402-1.138,18.36-15.047c-0.009-3.207-1.746-6.408-1.833-9.843c7.938,4.941,9.824,11.882,10.911,19.098
			c0.754,0.138,1.51,0.275,2.266,0.41c0.715-1.931,2.338-3.959,1.991-5.775c-1.268-6.601-3.363-13.112-4.825-19.702
			c-1.287-5.79-5.938-8.667-13.274-9.694c-7.293-1.018-14.561-2.155-22.907-3.393c11.758-7.028,36.577-2.632,42.185,7.365
			c5.412,9.646,8.26,19.962,2.194,30.401c-4.591,7.896-12.774,12.473-23.532,14.582c-16.649,3.27-32.876,0.378-48.321-3.646
			c-18.444-4.806-22.944-12.009-19.643-26.841c1.142-5.144,3.525-10.19,3.989-15.347c0.492-5.458,0.831-11.349-1.351-16.42
			c-4.929-11.442-0.184-21.713,3.555-32.475c3.479-10.009,5.667-20.327,7.281-30.611c0.616-3.907-1.629-8.165-3.125-12.144
			c-6.092-16.193-3.486-32.301,0.16-48.475c0.97-4.288,0.649-8.741,0.922-13.118c-0.872-0.038-1.746-0.078-2.619-0.115
			c-1.772,8.367-3.522,16.736-5.321,25.101c-2.675,12.46-9.513,23.541-19.933,33.383c-12.402,11.72-44.369,12.407-61.569,1.35
			c-19.742-12.688-34.247-28.427-47.025-45.226c-5.201-6.838-5.28-13.555-0.688-20.332c10.723-15.827,20.72-31.995,32.869-47.185
			c7.719-9.648,9.588-19.894,11.271-30.344c2.694-16.778,4.11-33.674,6.698-50.464c2.179-14.129,12.034-25.424,25.37-35.13
			c15.984-11.63,32.203-23.077,48.046-34.816c13.427-9.948,25.872-20.685,39.884-30.127c8.768-5.91,19.421-10.332,29.688-14.831
			c2.84-1.245,7.565-1.043,11.012-0.346c13.379,2.704,24.081,8.176,30.924,17.649c5.555,7.688,10.965,15.597,18.104,22.423
			c5.268,5.04,12.939,8.797,20.043,12.59c10.418,5.56,21.476,10.443,31.914,15.98c14.239,7.553,21.571,18.174,23.438,31.145
			c1.699,11.816,2.794,23.768,6.207,35.319c1.475,4.995,7.717,9.377,12.473,13.607c7.654,6.808,16.435,12.938,23.609,20.005
			c3.346,3.3,4.305,8.061,5.86,12.263c2.007,5.425,6.528,9.093,13.751,9.625c29.064,2.139,48.122,16.157,65.961,31.283
			c21.385,18.131,41.816,36.897,63.14,55.073c4.483,3.821,10.616,6.89,16.72,9.234c16.342,6.271,28.755,15.513,39.313,26.563
			c5.314,5.563,11.258,10.822,17.399,15.891c13.216,10.896,21.305,24.013,28.093,37.491c3.379,6.7,9.154,10.128,17.423,12.129
			c22.685,5.478,39.563,16.759,53.568,30.674c7.702,7.662,9.783,16.308,4.3,25.382c-14.087,23.311-34.788,41.767-67.78,50.743
			c-19.312,5.253-38.511,11.179-58.429,14.6c-16.818,2.89-34.453,4.154-52.053,1.02c-13.966-2.487-28.586-3.093-42.316-6.08
			c-14.941-3.251-29.352-8.147-39.109-18.102c-2.744-2.795-4.923-5.901-7.359-8.867c0.737-0.532,1.477-1.071,2.21-1.607
			c3.079,1.025,6.16,2.055,10.463,3.489c-2.419,0.847-3.854,1.35-6.342,2.222c38.151,23.995,82.562,25.496,128.533,24.221
			c0.296-2.126,0.518-3.109,0.54-4.1c0.018-0.797-0.197-1.601-0.39-2.962c-2.925,0.239-5.563,0.541-8.208,0.649
			c-2.651,0.112-5.311,0.025-10.256,0.025c3.412-3.475,5.68-5.793,7.693-7.848 M109.351,226.993
			c36.24-33.719,51.234-73.664,60.813-115.611c2.38,4.071,4.532,8.232,5.547,12.542c1.049,4.458,0.991,9.06,1.418,13.603
			c0.367,0.042,0.734,0.083,1.101,0.129c1.277-3.222,2.548-6.445,3.823-9.667c1.684,15.727-10.274,28.569-14.991,43.087
			c3.439-8.281,16.478-10.271,20.015-19.08c3.206-7.995,9.77-15.358,15.827-22.539c5.646-6.695,15.196-11.59,16.681-20.096
			c-4.017,3.863-8.032,7.723-12.048,11.582c-0.611-0.349-1.223-0.696-1.833-1.046c3.828-4.286,7.66-8.571,11.486-12.855
			c-10.989,4.419-18.554-2.525-28.963-3.001c2.346-3.368,3.423-6.363,5.947-8.291c10.43-7.973,20.29-16.674,32.256-23.123
			c15.31-8.25,27.166-17.079,26.594-32.262c-0.007-0.341,0.464-0.691,0.842-1.228c0.25,0.703,0.514,1.228,0.608,1.773
			c0.146,0.83,0.341,1.679,0.225,2.499c-1.378,9.68,3.121,16.904,14.616,21.972c4.368,1.925,7.702,5.328,11.082,8.324
			c6.252,5.544,12.272,11.237,18.226,16.965c4.178,4.017,8.084,8.194,11.718,11.898c-9.734,8.896-18.971,5.7-28.526,0.968
			c4.599,11.549,13.917,16.403,26.329,14.603c-0.771,1.674-2.889,2.621-5.147,2.889c-11.246,1.335-17.219-4.52-23.904-10.193
			c0.796,4.386,1.661,8.812,4.968,11.619c16.693,14.173,34.021,27.923,50.876,41.623c-2.798-5.959-5.957-12.565-9.008-19.2
			c-5.159-11.204-11.228-22.104-4.85-34.531c2.972-5.79,3.574-12.511,3.674-18.823c0.116-7.285-3.315-13.508-12.101-18.182
			c-8.991-4.784-16.983-10.695-24.931-16.489c-2.793-2.035-4.165-5.171-6.183-7.805c5.285,3.012,9.133,6.617,13.686,9.622
			c4.554,3.005,9.344,6.307,14.842,7.924c22.097,6.5,27.018,27.385,18.646,44.225c-6.146,12.359-3.928,22.776,5.066,33.18
			c0.781,0.904,2.649,1.237,3.81,2.008c1.765,1.169,4.491,2.334,4.833,3.77c2.099,8.841,3.646,17.755,5.367,26.647
			c2.776,14.341,9.222,27.371,22.579,38.277c6.584,5.376,12.201,11.421,18.258,17.165c-0.775,0.493-1.55,0.988-2.327,1.482
			c-12.78-8.712-25.565-17.427-39.13-26.676c-0.754,2.351-1.629,5.24-2.611,8.108c-2.127,6.209-1.887,14.165-7.055,18.185
			c-7.311,5.688-6.929,11.825-8.421,18.164c-0.728,3.085-1.395,6.18-1.903,9.289c-2.237,13.683-5.812,27.562,1.63,40.851
			c8.426,15.052,21.269,27.904,38.368,38.121c11.294,6.752,24.471,6.294,32.837-2.424c10.688-11.137,20.478-22.898,28.868-35.081
			c4.169-6.059,5.182-13.599,6.172-20.583c2.143-15.138-5.477-29.039-13.291-42.302c-9.984-16.95-22.534-33.051-33.993-49.513
			c-8.097-11.629-15.682-23.396-17.491-36.8c4.327,6.267,8.653,12.537,12.981,18.804c-0.341-17.335-1.16-34.254-3.643-51.033
			c-1.778-12.025-4.782-24.474-16.436-33.57c-8.711-6.797-19.664-11.975-29.645-17.846c-14.558-8.567-30.02-16.259-38.842-29.348
			c-4.732-7.018-11.423-13.355-17.808-19.667c-10.165-10.049-25.499-11.271-37.674-2.835
			c-18.375,12.728-36.362,25.769-54.454,38.727c-16.104,11.534-32.036,23.206-48.216,34.68
			c-10.084,7.152-19.965,14.982-22.274,25.235c-4.401,19.529-6.599,39.338-9.712,59.03c1.053,0.136,2.104,0.272,3.16,0.409
			c2.571-6.258,5.144-12.518,7.718-18.778c-0.379,14.256-2.541,28.079-11.664,40.701c-13.412,18.551-26.517,37.232-40.246,55.65
			c-4.416,5.928-5.67,11.416-0.014,16.853c12.791,12.297,25.707,24.53,39.03,36.503c3.482,3.132,8.178,6.004,13.111,7.628
			c17.063,5.605,35.23,7.501,46.444-7.347c11.658-15.431,18.187-31.585,19.292-49.353c0.973-15.683-3.409-29.554-15.836-42.473
			c-5.493-5.709-8.148-13.158-10.876-20.083c-1.435-3.65-0.252-7.881-0.252-11.847c-0.735-0.109-1.469-0.22-2.201-0.331
			C143.293,200.171,130.054,215.582,109.351,226.993z M650.881,432.367c0.49,0.706,0.983,1.413,1.475,2.116
			c9.396-2.54,19.31-4.371,27.996-7.902c5.275-2.145,9.144-6.57,6.167-12.338c-4.816-9.327-9.952-18.643-13.375-28.28
			c-11.222-31.656-37.8-55.414-68.924-76.852c-3.276-2.258-8.752-3.416-13.365-3.723c-7.965-0.529-16.142,0.629-24.073-0.02
			c-17.733-1.449-34.658-5.194-47.144-15.451c-17.256-14.177-33.968-28.735-50.64-43.306c-5.572-4.873-10.817-10.052-15.285-15.518
			c-4.48-5.479-7.67-11.541-11.654-17.257c-5.66-8.118-12.963-15.771-16.97-24.308c-6.221-13.261-19.032-22.041-32.84-32.059
			c0,2.451-0.071,3.828,0.01,5.201c1.06,18.354,7.995,35.059,22.416,50.227c15.792,16.612,24.904,35.364,27.331,55.821
			c0.75,6.334,1.578,12.663,2.394,19.163c6.039-1.094,7.498-7.569,15.605-5.533c5.137,1.29,11.234,0.439,16.901,0.55
			c0.497,0.978,0.992,1.958,1.491,2.937c-2.271,0.626-4.534,1.254-6.85,1.892c5.279,3.242,9.242,5.529,12.976,8.009
			c3.864,2.566,7.517,5.317,13.315,9.458c-0.677-7.15-1.174-12.427-1.714-18.076c11.886,10.621,10.269,26.609-3.292,34.731
			c-8.949,5.357-13.961,12.463-13.171,20.688c0.758,7.807,4.007,15.517,6.732,23.154c0.719,2.022,3.292,3.833,5.47,5.377
			c31.023,21.984,69.546,30.45,110.59,33.722c5.769,0.458,15.004,2.065,17.208-6.941c10.486,2.612,20.775,4.881,30.734,7.798
			c3.765,1.098,6.761,3.676,10.108,5.578c-3.728,1.565-7.458,3.113-11.164,4.695c-0.293,0.126-0.415,0.48-0.387,0.443
			c4.507,1.397,8.995,2.788,14.673,4.545C658.778,425.268,654.828,428.816,650.881,432.367z M277.645,260.501
			c-0.63,0.629-1.26,1.262-1.889,1.894c4.533,2.226,8.717,5.438,13.687,6.431c6.122,1.224,8.472-2.924,11.14-6.666
			c5.764-8.072,11.631-16.255,19.042-23.475c10.277-10.008,16.064-20.877,16.634-33.404c0.303-6.688,0.777-13.376,0.637-20.061
			c-0.073-3.477-0.206-7.371-2.252-10.314c-3.959-5.685-10.372-10.468-13.807-16.282c-5.354-9.058-13.61-16.159-22.717-22.943
			c-6.708-4.995-13.545-9.901-20.024-15.063c-1.705-1.358-2.894-3.444-3.263-5.313c-0.854-4.332-1.321-8.73-1.475-13.111
			c-0.228-6.69-0.059-13.388-0.059-20.081c0.777-0.029,1.554-0.056,2.33-0.083c0.544,3.993,1.094,7.987,1.641,11.981
			c0.562-3.535,0.239-7.084,0.63-10.586c0.76-6.794-3.251-11.554-10.349-15.31c-4.957-2.622-9.722-5.453-13.923-7.825
			c-5.23,2.92-11.129,6.65-17.582,9.719c-10.653,5.065-13.42,9.28-11.438,18.442c0.755,3.491,1.305,7.093,1.026,10.604
			c-0.654,8.236-1.042,16.177-9.876,23.016c-8.552,6.618-14.134,15.339-22.119,22.44c-8.79,7.813-8.304,18.519-20.113,26.355
			c-13.329,8.85-13.528,23.274-4.432,36.599c10.259,15.021,19.07,30.597,28.599,45.9c1.647,2.641,3.111,5.612,5.785,7.553
			c3.468,2.517,8.069,4.152,12.18,6.167c2.897-3.859,6.019-7.636,8.554-11.625c0.711-1.12-0.552-2.863-0.478-4.31
			c0.153-3.103,0.087-6.281,0.992-9.28c4.269-14.13,14.253-24.974,33.247-31.009c-0.843,1.784-1.526,3.232-2.344,4.959
			c21.558,10.774,17.361,29.625,25.109,45.213C279.489,260.818,278.565,260.66,277.645,260.501z M346.893,333.01
			c1.208,8.04,2.526,15.658,3.465,23.305c2.062,16.818,4.505,33.631,5.532,50.484c0.301,4.942-1.896,11.104-5.968,14.858
			c-11.489,10.577-7.991,25.574,8.924,32.287c-4.357-18.605-1.888-28.027,6.921-30.134c1.176,10.898,2.376,22.004,3.563,32.997
			c8.915,0,15.421,0,22.647,0c-1.471-8.741,0.188-16.543,6.735-23.588c1.214,4.628,0.383,9.273,1.474,13.643
			c0.893,3.563,3.09,8.591,6.547,9.678c3.449,1.084,9.728-1.323,13.695-3.374c2.241-1.155,3.417-4.744,3.166-7.123
			c-0.995-9.274-2.716-18.508-4.241-27.748c-2.295-13.93-0.024-27.647,5.46-40.84c3.823-9.209,10.206-17.816,15.316-26.731
			c0.742-1.295,1.208-2.853,1.051-4.243c-1.322-11.363-2.816-22.71-4.268-34.064c-0.089-0.71-0.268-1.41-0.405-2.116
			c-7.082,6.367-11.991,13.316-17.744,19.844c-17.218,19.547-29.833,23.461-53.973,12.036
			C358.789,339.335,353.049,336.177,346.893,333.01z M230.691,333.06c10.164-2.309,8.911,7.614,16.305,9.138
			c0.824-0.912,1.564-2.022,2.657-2.888c7.687-6.066,7.687-13.653,9.073-21.377c1.051-5.851-1.299-9.689-5.619-13.47
			c-5.062-4.43-11.176-8.223-15.849-12.852c-3.605-3.573-5.688-8.015-8.449-12.068c0.979-0.406,1.96-0.811,2.942-1.218
			c1.327,0.661,2.876,1.161,3.947,2.004c9.952,7.821,20.133,15.498,29.571,23.659c4.261,3.682,8.129,8.069,10.206,12.644
			c6.537,14.414,20.996,23.108,36.97,31.035c6.649,3.3,13.003,6.972,19.174,10.76c3.071,1.896,5.438,4.437,8.123,6.681
			c2.286-17.23,4.332-34.113-8.849-48.82c-13.582-15.159-16.997-31.506-13.245-49.07c1.493-6.973,3.601-13.87,5.431-20.802
			c-2.648,0.538-3.91,1.369-4.646,2.409c-3.913,5.515-7.736,11.068-11.514,16.636c-6.908,10.181-19.372,12.338-29.355,4.096
			c-4.914-4.06-6.965-10.073-10.783-15.922c-10.432,4.694-21.89,8.822-33.581-0.327c-1.139,2.907-1.74,4.705-2.557,6.446
			c-0.925,1.968-1.339,4.47-3.192,5.728c-11.086,7.522-9.96,16.552-7.96,26.488 M537.744,401.903
			c-20.17-8.697-36.566-17.847-51.607-28.874c-23.1-16.935-22.362-43.515,3.854-57.107c4.052-2.103,5.351-4.329,2.329-7.214
			c-4.095-3.908-8.42-7.709-13.038-11.27c-3.829-2.955-9.084-5.046-12.154-8.337c-4.068-4.362-10.04-5.69-13.26-1.275
			c-3.799,5.211-6.83,10.941-8.661,16.719c-3.331,10.541-0.741,21.019,1.491,31.625c1.829,8.648,2.154,17.826-4.453,26.021
			c-8.166,10.129-14.195,20.739-13.963,32.94c0.165,8.844,1.446,9.989,13.389,9.687c1.377-0.037,2.746-0.359,4.123-0.414
			c16.247-0.671,32.159,0.331,47.48,4.907c1.859,0.551,4.494,0.098,6.596-0.35c8.45-1.797,16.786-3.869,25.248-5.63
			C528.413,402.645,531.919,402.538,537.744,401.903z M681.675,386.962c5.583,11.224,10.905,21.209,15.422,31.396
			c1.699,3.818,3.175,8.435,1.898,12.127c-3.969,11.449-10.387,22.429-23.967,29.273c-15.579,7.855-32.063,14.712-48.186,22.014
			c-0.067-0.077,1.063,1.145,2.159,2.337c-3.378,2.197-6.306,4.103-10.085,6.56c13.407,1.585,13.566,1.72,10.832,8.407
			c2.063,0,4.073,0.319,5.835-0.045c40.415-8.418,77.825-20.268,101.477-48.613c9.762-11.701,10.045-24.473-0.484-34.278
			C722.509,403.028,704.783,393.761,681.675,386.962z M653.686,410.071c-3.562-0.303-4.607-0.49-5.637-0.464
			c-16.816,0.407-33.986,2.656-50.365,0.861c-26.923-2.952-53.438-4.725-80.323-0.956c-15.007,2.104-23.77,7.985-26.59,17.293
			c-1.987,6.563,1.304,11.581,7.928,14.968c4.393,2.239,10.18,3.279,15.542,3.932c1.908,0.231,4.3-2.396,6.67-3.469
			c1.356-0.61,3.108-0.743,4.704-1.051c3.974-0.783,7.905-1.828,11.947-2.223c3.208-0.316,6.67-0.184,9.809,0.392
			c6.919,1.267,11.688,6.122,20.967,3.76c21.038-5.365,42.653-9.337,65.351-8.775c10.689,0.264,15.821-6.286,23.257-13.075
			c-10.492-0.445-18.771-0.789-27.051-1.136c-0.296-0.81-0.597-1.613-0.892-2.419C636.45,415.405,643.897,413.098,653.686,410.071z
			 M481.319,428.99c3.225-6.052,5.432-10.19,8.113-15.226c-20.57-1.521-40.77-9.915-59.124,4.845
			c0.439,1.671,1.068,4.05,1.721,6.524c1.154-0.33,1.678-0.63,2.178-0.603c3.529,0.159,7.372-0.164,10.428,0.84
			c1.367,0.455,2.285,4.878,1.432,5.313c-2.473,1.259-5.996,1.296-8.996,2.064c-0.924,0.239-1.486,1.282-1.232,1.046
			c3.932,1.327,7.311,2.463,10.689,3.604c-3.305,2.377-6.613,4.756-9.922,7.13c3.521,1.112,8.317,5.696,14.25-0.335
			c0.583-0.593,3.811-0.691,4.422-0.146c6.43,5.767,10.939-0.054,16.227-0.926c-2.786-0.484-5.589-0.179-8.228-0.548
			c-8.61-1.182-13.894-7.279-10.057-11.636c3.304-3.752,6.81-7.505,10.995-10.681c2.044-1.547,5.986-2.615,8.79-2.335
			c1.905,0.182,3.517,3.014,4.908,4.817C479.047,424.208,479.672,425.903,481.319,428.99z M255.081,217.551
			c-1.183-0.04-2.365-0.082-3.551-0.125c-4.324,4.688-8.934,9.239-12.905,14.091c-6.981,8.534-6.815,8.609,2.624,15.546
			c7.201,5.291,13.581,6.168,22.156,2.211c2.21-1.022,4.648-4.306,4.007-5.859C263.806,234.676,259.288,226.151,255.081,217.551z"/>
		<path fill-rule="evenodd" clip-rule="evenodd" fill="#FFFFFF" d="M481.319,428.99c-1.647-3.087-2.272-4.782-3.406-6.25
			c-1.392-1.804-3.003-4.636-4.908-4.817c-2.804-0.28-6.746,0.788-8.79,2.335c-4.186,3.176-7.691,6.929-10.995,10.681
			c-3.837,4.356,1.446,10.454,10.057,11.636c2.639,0.369,5.441,0.063,8.228,0.548c-5.287,0.872-9.797,6.692-16.227,0.926
			c-0.611-0.546-3.839-0.447-4.422,0.146c-5.933,6.031-10.729,1.447-14.25,0.335c3.309-2.374,6.617-4.753,9.922-7.13
			c-3.379-1.141-6.758-2.276-10.689-3.604c-0.254,0.236,0.309-0.807,1.232-1.046c3-0.769,6.523-0.806,8.996-2.064
			c0.854-0.436-0.064-4.858-1.432-5.313c-3.056-1.004-6.898-0.681-10.428-0.84c-0.5-0.027-1.023,0.272-2.178,0.603
			c-0.652-2.475-1.281-4.854-1.721-6.524c18.354-14.76,38.554-6.366,59.124-4.845C486.751,418.8,484.544,422.938,481.319,428.99z
			 M452.644,413.539c-3.522,2.663-5.583,4.222-7.646,5.779c2.387,1.623,4.541,4.158,7.248,4.545c1.823,0.262,5.893-2.329,6.24-3.964
			C458.805,418.393,455.49,416.45,452.644,413.539z"/>
		<path fill-rule="evenodd" clip-rule="evenodd" fill="#BE1E2D" d="M169.058,105.306c-6.059-9.127-4.949-17.916,2.891-25.686
			c10.381-10.295,21.416-20.137,37.312-26.22c8.471-3.243,16.229-7.535,24.417-11.405c-5.085,7.781-14.792,11.884-24.293,15.883
			c-11.58,4.874-21.571,10.893-29.375,19.006c-6.705,6.971-11.231,14.383-10.444,23.235
			C169.718,101.833,169.242,103.577,169.058,105.306z"/>
		<path fill-rule="evenodd" clip-rule="evenodd" d="M253.859,162.69c9.805,2.683,19.347,5.139,28.667,8.009
			c1.467,0.451,3.238,3.416,2.626,4.117c-4.159,4.768-8.205,9.819-13.703,13.632c-4.76,3.303-11.31,5.193-17.219,7.493
			c-1.865,0.725-4.244,1.148-6.326,1.042c-18.557-0.932-30.987-8.868-40.164-20.295c-2.39-2.973-1.373-5.197,3.401-6.083
			C225.064,168.028,238.988,165.445,253.859,162.69z M274.272,173.921c-19.034-6.754-36.884-4.987-55.065,0.343
			C228.457,185.853,262.066,185.909,274.272,173.921z"/>
		<path fill-rule="evenodd" clip-rule="evenodd" fill="#BE1E2D" d="M291.872,152.651c-25.139-3.388-49.423-4.973-75.472,1.182
			C236.76,142.695,285.186,141.722,291.872,152.651z"/>
		<path fill-rule="evenodd" clip-rule="evenodd" fill="#BE1E2D" d="M233.852,137.286c10.856-5.265,21.872-3.188,32.928,0
			C255.802,137.286,244.827,137.286,233.852,137.286z"/>
		<path fill-rule="evenodd" clip-rule="evenodd" fill="#BE1E2D" d="M516.505,437.082c-4.741,2.687-6.82,4.701-9.366,5.126
			c-4.431,0.731-12.709-5.205-11.798-8.623c0.475-1.758,5.022-4.635,5.953-4.292C505.992,431.023,510.105,433.649,516.505,437.082z"
			/>
		<path fill-rule="evenodd" clip-rule="evenodd" fill="#BE1E2D" d="M518.338,425.903c8.066,0.381,15.609,5.479,14.232,8.789
			c-0.633,1.523-5.391,3.713-6.207,3.304c-4.694-2.379-8.759-5.449-13.038-8.279C515.348,428.179,517.369,426.634,518.338,425.903z"
			/>
		<path fill-rule="evenodd" clip-rule="evenodd" fill="#BE1E2D" d="M452.644,413.539c2.847,2.911,6.161,4.854,5.843,6.36
			c-0.348,1.635-4.417,4.226-6.24,3.964c-2.707-0.387-4.861-2.922-7.248-4.545C447.061,417.761,449.121,416.202,452.644,413.539z"/>
		<path fill-rule="evenodd" clip-rule="evenodd" fill="#FFFFFF" d="M219.207,174.264c18.181-5.33,36.031-7.097,55.065-0.343"/>
	</g>
	<g>
		<text transform="matrix(1.3313 0 0 1 154.2002 536.1826)" fill="#C1272D" font-family="'BuxtonSketch'" font-size="104.6138">OldDog</text>
		<text transform="matrix(1.3313 0 0 1 179.7324 565.8252)" font-family="'CopperplateGothic-Bold'" font-size="36.6148">3DDesign</text>
	</g>
</g>
<g>
	<g>
		<path fill="#FFFFFF" d="M132.933,127.728c3.224,0,3.224-5,0-5S129.709,127.728,132.933,127.728L132.933,127.728z"/>
	</g>
</g>
<g>
	<g>
		<path fill="#FFFFFF" d="M130.919,170.01c3.224,0,3.224-5,0-5S127.695,170.01,130.919,170.01L130.919,170.01z"/>
	</g>
</g>
<g>
	<g>
		<path fill="#FFFFFF" d="M185.953,210.95c3.224,0,3.224-5,0-5S182.729,210.95,185.953,210.95L185.953,210.95z"/>
	</g>
</g>
<g>
	<g>
		<path fill="#FFFFFF" d="M498.705,425.044c3.225,0,3.225-5,0-5S495.48,425.044,498.705,425.044L498.705,425.044z"/>
	</g>
</g>
</svg>
